<mxfile host="Electron" modified="2024-06-12T13:56:17.444Z" agent="Mozilla/5.0 (X11; Linux x86_64) AppleWebKit/537.36 (KHTML, like Gecko) draw.io/24.4.6 Chrome/124.0.6367.207 Electron/30.0.6 Safari/537.36" etag="KfxdDoHbdI28xntTFanO" version="24.4.6" type="device" pages="4">
  <diagram id="IUutwtIi_xowKQfKzAiz" name="lean_canvas">
    <mxGraphModel dx="880" dy="522" grid="1" gridSize="10" guides="1" tooltips="1" connect="1" arrows="1" fold="1" page="1" pageScale="1" pageWidth="850" pageHeight="1100" math="0" shadow="0">
      <root>
        <mxCell id="0" />
        <mxCell id="1" parent="0" />
        <mxCell id="N1j-NG2Vdm3HL-knyuAw-1" value="&lt;div style=&quot;font-size: 14px;&quot;&gt;&lt;b style=&quot;font-size: 14px;&quot;&gt;Problem&lt;/b&gt;&lt;/div&gt;&lt;div style=&quot;font-size: 14px;&quot;&gt;&lt;br style=&quot;font-size: 14px;&quot;&gt;&lt;/div&gt;&lt;div style=&quot;font-size: 14px;&quot;&gt;&lt;br style=&quot;font-size: 14px;&quot;&gt;&lt;/div&gt;&lt;div style=&quot;font-size: 14px;&quot;&gt;Trade-off between cost and efficiency of cooling systems&lt;/div&gt;" style="rounded=1;whiteSpace=wrap;html=1;arcSize=0;fillColor=#f8cecc;strokeColor=#b85450;fontFamily=Times New Roman;fontSize=14;" parent="1" vertex="1">
          <mxGeometry x="80" y="80" width="120" height="130" as="geometry" />
        </mxCell>
        <mxCell id="N1j-NG2Vdm3HL-knyuAw-2" value="&lt;div style=&quot;font-size: 14px;&quot;&gt;&lt;b&gt;Key Metrics&lt;/b&gt;&lt;/div&gt;&lt;div style=&quot;font-size: 14px;&quot;&gt;&lt;br style=&quot;font-size: 14px;&quot;&gt;&lt;/div&gt;&lt;div style=&quot;font-size: 14px;&quot;&gt;&lt;br style=&quot;font-size: 14px;&quot;&gt;&lt;/div&gt;&lt;div style=&quot;text-align: left; font-size: 14px;&quot;&gt;&amp;nbsp;- Number of loyal&amp;nbsp; &amp;nbsp; &amp;nbsp; &amp;nbsp; customers&lt;/div&gt;&lt;div style=&quot;font-size: 14px;&quot;&gt;&lt;br style=&quot;font-size: 14px;&quot;&gt;&lt;/div&gt;" style="rounded=1;whiteSpace=wrap;html=1;arcSize=0;fillColor=#f8cecc;strokeColor=#b85450;fontFamily=Times New Roman;fontSize=14;" parent="1" vertex="1">
          <mxGeometry x="210" y="220" width="120" height="130" as="geometry" />
        </mxCell>
        <mxCell id="N1j-NG2Vdm3HL-knyuAw-3" value="&lt;div style=&quot;font-size: 14px;&quot;&gt;&lt;b&gt;Unique Selling Proposition&lt;/b&gt;&lt;/div&gt;&lt;div style=&quot;font-size: 14px;&quot;&gt;&lt;br style=&quot;font-size: 14px;&quot;&gt;&lt;/div&gt;&lt;div style=&quot;font-size: 14px;&quot;&gt;Cost effective and high performance control system&lt;/div&gt;" style="rounded=1;whiteSpace=wrap;html=1;arcSize=0;fillColor=#f8cecc;strokeColor=#b85450;fontFamily=Times New Roman;fontSize=14;" parent="1" vertex="1">
          <mxGeometry x="340" y="80" width="120" height="130" as="geometry" />
        </mxCell>
        <mxCell id="N1j-NG2Vdm3HL-knyuAw-4" value="&lt;div style=&quot;font-size: 14px;&quot;&gt;&lt;b&gt;Solution&lt;/b&gt;&lt;/div&gt;&lt;div style=&quot;font-size: 14px;&quot;&gt;&lt;br style=&quot;font-size: 14px;&quot;&gt;&lt;/div&gt;&lt;div style=&quot;font-size: 14px;&quot;&gt;&lt;br style=&quot;font-size: 14px;&quot;&gt;&lt;/div&gt;&lt;div style=&quot;font-size: 14px;&quot;&gt;Cost effective temperature regulation system&lt;/div&gt;" style="rounded=1;whiteSpace=wrap;html=1;arcSize=0;fillColor=#f8cecc;strokeColor=#b85450;fontFamily=Times New Roman;fontSize=14;" parent="1" vertex="1">
          <mxGeometry x="210" y="80" width="120" height="130" as="geometry" />
        </mxCell>
        <mxCell id="N1j-NG2Vdm3HL-knyuAw-5" value="&lt;div style=&quot;font-size: 14px;&quot;&gt;&lt;b&gt;Existing Alternatives&lt;/b&gt;&lt;/div&gt;&lt;div style=&quot;font-size: 14px;&quot;&gt;&lt;br style=&quot;font-size: 14px;&quot;&gt;&lt;/div&gt;&lt;div style=&quot;font-size: 14px;&quot;&gt;&lt;div style=&quot;&quot;&gt;&lt;div style=&quot;text-align: left;&quot;&gt;&lt;span style=&quot;background-color: initial;&quot;&gt;&amp;nbsp;-&amp;nbsp; Air Condition&lt;/span&gt;&lt;/div&gt;&lt;div style=&quot;text-align: left;&quot;&gt;&lt;span style=&quot;background-color: initial; text-align: center;&quot;&gt;&amp;nbsp;-&amp;nbsp; Fan&lt;/span&gt;&lt;/div&gt;&lt;/div&gt;&lt;/div&gt;&lt;div style=&quot;font-size: 14px;&quot;&gt;&lt;br style=&quot;font-size: 14px;&quot;&gt;&lt;/div&gt;" style="rounded=1;whiteSpace=wrap;html=1;arcSize=0;fillColor=#f8cecc;strokeColor=#b85450;fontFamily=Times New Roman;fontSize=14;" parent="1" vertex="1">
          <mxGeometry x="80" y="220" width="120" height="130" as="geometry" />
        </mxCell>
        <mxCell id="N1j-NG2Vdm3HL-knyuAw-6" value="&lt;div style=&quot;font-size: 14px;&quot;&gt;&lt;b&gt;Early Adopters&lt;/b&gt;&lt;/div&gt;&lt;div style=&quot;font-size: 14px;&quot;&gt;&lt;br style=&quot;font-size: 14px;&quot;&gt;&lt;/div&gt;&lt;div style=&quot;font-size: 14px;&quot;&gt;&lt;br style=&quot;font-size: 14px;&quot;&gt;&lt;/div&gt;&lt;div style=&quot;font-size: 14px;&quot;&gt;Dar es Salaam,&lt;/div&gt;&lt;div style=&quot;font-size: 14px;&quot;&gt;Tanzania&lt;/div&gt;&lt;div style=&quot;font-size: 14px;&quot;&gt;&lt;br style=&quot;font-size: 14px;&quot;&gt;&lt;/div&gt;" style="rounded=1;whiteSpace=wrap;html=1;arcSize=0;fillColor=#f8cecc;strokeColor=#b85450;fontFamily=Times New Roman;fontSize=14;" parent="1" vertex="1">
          <mxGeometry x="600" y="220" width="120" height="130" as="geometry" />
        </mxCell>
        <mxCell id="N1j-NG2Vdm3HL-knyuAw-7" value="&lt;div style=&quot;font-size: 14px;&quot;&gt;&lt;b&gt;Customer Segment&lt;/b&gt;&lt;/div&gt;&lt;div style=&quot;font-size: 14px;&quot;&gt;&lt;br style=&quot;font-size: 14px;&quot;&gt;&lt;/div&gt;&lt;div style=&quot;font-size: 14px;&quot;&gt;&lt;br&gt;&lt;/div&gt;&lt;div style=&quot;text-align: left; font-size: 14px;&quot;&gt;&amp;nbsp;- Home Owners&lt;/div&gt;&lt;div style=&quot;text-align: left; font-size: 14px;&quot;&gt;&amp;nbsp;- Apartments&lt;/div&gt;&lt;div style=&quot;font-size: 14px;&quot;&gt;&lt;br style=&quot;font-size: 14px;&quot;&gt;&lt;/div&gt;" style="rounded=1;whiteSpace=wrap;html=1;arcSize=0;fillColor=#f8cecc;strokeColor=#b85450;fontFamily=Times New Roman;fontSize=14;" parent="1" vertex="1">
          <mxGeometry x="600" y="80" width="120" height="130" as="geometry" />
        </mxCell>
        <mxCell id="N1j-NG2Vdm3HL-knyuAw-8" value="&lt;div style=&quot;font-size: 14px;&quot;&gt;&lt;b&gt;Channel&lt;/b&gt;&lt;/div&gt;&lt;div style=&quot;font-size: 14px;&quot;&gt;&lt;br style=&quot;font-size: 14px;&quot;&gt;&lt;/div&gt;&lt;div style=&quot;font-size: 14px;&quot;&gt;&lt;br style=&quot;font-size: 14px;&quot;&gt;&lt;/div&gt;&lt;div style=&quot;font-size: 14px;&quot;&gt;User References&lt;/div&gt;&lt;div style=&quot;font-size: 14px;&quot;&gt;Retails&lt;/div&gt;&lt;div style=&quot;font-size: 14px;&quot;&gt;&lt;br style=&quot;font-size: 14px;&quot;&gt;&lt;/div&gt;" style="rounded=1;whiteSpace=wrap;html=1;arcSize=0;fillColor=#f8cecc;strokeColor=#b85450;fontFamily=Times New Roman;fontSize=14;" parent="1" vertex="1">
          <mxGeometry x="470" y="220" width="120" height="130" as="geometry" />
        </mxCell>
        <mxCell id="N1j-NG2Vdm3HL-knyuAw-9" value="&lt;div style=&quot;font-size: 14px;&quot;&gt;&lt;b&gt;Unfair Advantage&lt;/b&gt;&lt;/div&gt;&lt;div style=&quot;font-size: 14px;&quot;&gt;&lt;b&gt;&lt;br&gt;&lt;/b&gt;&lt;/div&gt;&lt;div style=&quot;font-size: 14px;&quot;&gt;&lt;br&gt;&lt;/div&gt;&lt;div style=&quot;text-align: left; font-size: 14px;&quot;&gt;&amp;nbsp;- Air Conditioner&lt;/div&gt;&lt;div style=&quot;text-align: left; font-size: 14px;&quot;&gt;&amp;nbsp;- Portable&amp;nbsp;&lt;/div&gt;&lt;div style=&quot;font-size: 14px;&quot;&gt;&lt;br&gt;&lt;/div&gt;" style="rounded=1;whiteSpace=wrap;html=1;arcSize=0;fillColor=#f8cecc;strokeColor=#b85450;fontFamily=Times New Roman;fontSize=14;" parent="1" vertex="1">
          <mxGeometry x="470" y="80" width="120" height="130" as="geometry" />
        </mxCell>
        <mxCell id="N1j-NG2Vdm3HL-knyuAw-10" value="&lt;div style=&quot;font-size: 14px;&quot;&gt;&lt;b&gt;High level concept&lt;/b&gt;&lt;/div&gt;&lt;div style=&quot;font-size: 14px;&quot;&gt;&lt;br style=&quot;font-size: 14px;&quot;&gt;&lt;/div&gt;&lt;div style=&quot;font-size: 14px;&quot;&gt;&lt;br&gt;&lt;/div&gt;&lt;div style=&quot;font-size: 14px;&quot;&gt;Develop automated temperature control system&lt;/div&gt;" style="rounded=1;whiteSpace=wrap;html=1;arcSize=0;fillColor=#f8cecc;strokeColor=#b85450;fontFamily=Times New Roman;fontSize=14;" parent="1" vertex="1">
          <mxGeometry x="340" y="220" width="120" height="130" as="geometry" />
        </mxCell>
        <mxCell id="N1j-NG2Vdm3HL-knyuAw-11" value="&lt;div style=&quot;font-size: 14px;&quot;&gt;&lt;b&gt;Cost Structure&lt;/b&gt;&lt;/div&gt;&lt;div style=&quot;font-size: 14px;&quot;&gt;&lt;b&gt;&lt;br&gt;&lt;/b&gt;&lt;/div&gt;&lt;div style=&quot;text-align: right; font-size: 14px;&quot;&gt;&amp;nbsp;- Development Cost&lt;/div&gt;&lt;div style=&quot;font-size: 14px;&quot;&gt;&amp;nbsp;- Marketing Cost&amp;nbsp; &amp;nbsp; &amp;nbsp;&lt;/div&gt;" style="rounded=1;whiteSpace=wrap;html=1;arcSize=0;fillColor=#f8cecc;strokeColor=#b85450;fontFamily=Times New Roman;fontSize=14;" parent="1" vertex="1">
          <mxGeometry x="80" y="360" width="310" height="100" as="geometry" />
        </mxCell>
        <mxCell id="N1j-NG2Vdm3HL-knyuAw-12" value="&lt;div style=&quot;font-size: 14px;&quot;&gt;&lt;b&gt;Revenue Stream&lt;/b&gt;&lt;/div&gt;&lt;div style=&quot;text-align: left; font-size: 14px;&quot;&gt;&lt;span style=&quot;background-color: initial;&quot;&gt;&amp;nbsp;- Investment&lt;/span&gt;&lt;br&gt;&lt;/div&gt;&lt;div style=&quot;text-align: left; font-size: 14px;&quot;&gt;&amp;nbsp;- Maintenance and Installation&lt;/div&gt;&lt;div style=&quot;text-align: left; font-size: 14px;&quot;&gt;&amp;nbsp;- Direct Sales&lt;/div&gt;" style="rounded=1;whiteSpace=wrap;html=1;arcSize=0;fillColor=#f8cecc;strokeColor=#b85450;fontFamily=Times New Roman;fontSize=14;" parent="1" vertex="1">
          <mxGeometry x="410" y="360" width="310" height="100" as="geometry" />
        </mxCell>
      </root>
    </mxGraphModel>
  </diagram>
  <diagram id="fbFZtdybgHPGP7j4UPw3" name="block_diagram">
    <mxGraphModel dx="880" dy="522" grid="1" gridSize="10" guides="1" tooltips="1" connect="1" arrows="1" fold="1" page="1" pageScale="1" pageWidth="850" pageHeight="1100" math="0" shadow="0">
      <root>
        <mxCell id="0" />
        <mxCell id="1" parent="0" />
        <mxCell id="qX_eJ9X0-TSV4JlGl-xu-5" style="edgeStyle=orthogonalEdgeStyle;rounded=0;orthogonalLoop=1;jettySize=auto;html=1;exitX=0.5;exitY=1;exitDx=0;exitDy=0;entryX=0.5;entryY=0;entryDx=0;entryDy=0;startArrow=classic;startFill=1;" parent="1" source="Xi10BOZ2VGo8RdoqIAmX-1" target="Xi10BOZ2VGo8RdoqIAmX-6" edge="1">
          <mxGeometry relative="1" as="geometry" />
        </mxCell>
        <mxCell id="JZ5oZrzmXpjfikpqD0F4-2" style="rounded=0;orthogonalLoop=1;jettySize=auto;html=1;exitX=1;exitY=0.5;exitDx=0;exitDy=0;endArrow=oval;endFill=1;" parent="1" source="Xi10BOZ2VGo8RdoqIAmX-1" edge="1">
          <mxGeometry relative="1" as="geometry">
            <mxPoint x="520" y="320" as="targetPoint" />
          </mxGeometry>
        </mxCell>
        <mxCell id="Xi10BOZ2VGo8RdoqIAmX-1" value="&lt;font style=&quot;font-size: 15px;&quot; face=&quot;Times New Roman&quot;&gt;&lt;b&gt;Micro-controller&lt;/b&gt;&lt;/font&gt;" style="rounded=1;whiteSpace=wrap;html=1;" parent="1" vertex="1">
          <mxGeometry x="360" y="240" width="120" height="160" as="geometry" />
        </mxCell>
        <mxCell id="cwdDH5eGxF_M0OgsM5ry-1" style="edgeStyle=orthogonalEdgeStyle;rounded=0;orthogonalLoop=1;jettySize=auto;html=1;exitX=0;exitY=0.5;exitDx=0;exitDy=0;endArrow=oval;endFill=1;" parent="1" source="Xi10BOZ2VGo8RdoqIAmX-2" edge="1">
          <mxGeometry relative="1" as="geometry">
            <mxPoint x="560" y="280" as="targetPoint" />
          </mxGeometry>
        </mxCell>
        <mxCell id="Xi10BOZ2VGo8RdoqIAmX-2" value="&lt;font face=&quot;Times New Roman&quot;&gt;&lt;span style=&quot;font-size: 15px;&quot;&gt;&lt;b&gt;Cooling System&lt;/b&gt;&lt;/span&gt;&lt;/font&gt;" style="rounded=1;whiteSpace=wrap;html=1;" parent="1" vertex="1">
          <mxGeometry x="600" y="220" width="120" height="60" as="geometry" />
        </mxCell>
        <mxCell id="cwdDH5eGxF_M0OgsM5ry-2" style="edgeStyle=orthogonalEdgeStyle;rounded=0;orthogonalLoop=1;jettySize=auto;html=1;exitX=0;exitY=0.5;exitDx=0;exitDy=0;endArrow=oval;endFill=1;" parent="1" source="Xi10BOZ2VGo8RdoqIAmX-3" edge="1">
          <mxGeometry relative="1" as="geometry">
            <mxPoint x="560" y="360" as="targetPoint" />
          </mxGeometry>
        </mxCell>
        <mxCell id="Xi10BOZ2VGo8RdoqIAmX-3" value="&lt;font face=&quot;Times New Roman&quot;&gt;&lt;span style=&quot;font-size: 15px;&quot;&gt;&lt;b&gt;Heating System&lt;/b&gt;&lt;/span&gt;&lt;/font&gt;" style="rounded=1;whiteSpace=wrap;html=1;" parent="1" vertex="1">
          <mxGeometry x="600" y="360" width="120" height="60" as="geometry" />
        </mxCell>
        <mxCell id="qX_eJ9X0-TSV4JlGl-xu-4" style="edgeStyle=orthogonalEdgeStyle;rounded=0;orthogonalLoop=1;jettySize=auto;html=1;exitX=1;exitY=0.5;exitDx=0;exitDy=0;entryX=0;entryY=0.25;entryDx=0;entryDy=0;" parent="1" source="Xi10BOZ2VGo8RdoqIAmX-4" target="Xi10BOZ2VGo8RdoqIAmX-1" edge="1">
          <mxGeometry relative="1" as="geometry" />
        </mxCell>
        <mxCell id="Xi10BOZ2VGo8RdoqIAmX-4" value="&lt;font face=&quot;Times New Roman&quot;&gt;&lt;span style=&quot;font-size: 15px;&quot;&gt;&lt;b&gt;Temperature&amp;nbsp; sensor&lt;/b&gt;&lt;/span&gt;&lt;/font&gt;" style="rounded=1;whiteSpace=wrap;html=1;" parent="1" vertex="1">
          <mxGeometry x="180" y="250" width="120" height="60" as="geometry" />
        </mxCell>
        <mxCell id="qX_eJ9X0-TSV4JlGl-xu-3" style="edgeStyle=orthogonalEdgeStyle;rounded=0;orthogonalLoop=1;jettySize=auto;html=1;exitX=1;exitY=0.5;exitDx=0;exitDy=0;entryX=0;entryY=0.75;entryDx=0;entryDy=0;" parent="1" source="Xi10BOZ2VGo8RdoqIAmX-5" target="Xi10BOZ2VGo8RdoqIAmX-1" edge="1">
          <mxGeometry relative="1" as="geometry" />
        </mxCell>
        <mxCell id="Xi10BOZ2VGo8RdoqIAmX-5" value="&lt;font face=&quot;Times New Roman&quot;&gt;&lt;span style=&quot;font-size: 15px;&quot;&gt;&lt;b&gt;Reference Temperature&lt;/b&gt;&lt;/span&gt;&lt;/font&gt;" style="rounded=1;whiteSpace=wrap;html=1;" parent="1" vertex="1">
          <mxGeometry x="180" y="330" width="120" height="60" as="geometry" />
        </mxCell>
        <mxCell id="Xi10BOZ2VGo8RdoqIAmX-6" value="&lt;font face=&quot;Times New Roman&quot;&gt;&lt;span style=&quot;font-size: 15px;&quot;&gt;&lt;b&gt;Memory&lt;/b&gt;&lt;/span&gt;&lt;/font&gt;" style="rounded=1;whiteSpace=wrap;html=1;" parent="1" vertex="1">
          <mxGeometry x="360" y="460" width="120" height="60" as="geometry" />
        </mxCell>
        <mxCell id="cwdDH5eGxF_M0OgsM5ry-4" style="edgeStyle=orthogonalEdgeStyle;rounded=0;orthogonalLoop=1;jettySize=auto;html=1;exitX=0.25;exitY=0;exitDx=0;exitDy=0;" parent="1" source="Xi10BOZ2VGo8RdoqIAmX-7" edge="1">
          <mxGeometry relative="1" as="geometry">
            <mxPoint x="210" y="480" as="targetPoint" />
          </mxGeometry>
        </mxCell>
        <mxCell id="cwdDH5eGxF_M0OgsM5ry-5" style="edgeStyle=orthogonalEdgeStyle;rounded=0;orthogonalLoop=1;jettySize=auto;html=1;exitX=0.5;exitY=0;exitDx=0;exitDy=0;" parent="1" source="Xi10BOZ2VGo8RdoqIAmX-7" edge="1">
          <mxGeometry relative="1" as="geometry">
            <mxPoint x="240" y="480" as="targetPoint" />
          </mxGeometry>
        </mxCell>
        <mxCell id="cwdDH5eGxF_M0OgsM5ry-6" style="edgeStyle=orthogonalEdgeStyle;rounded=0;orthogonalLoop=1;jettySize=auto;html=1;exitX=0.75;exitY=0;exitDx=0;exitDy=0;" parent="1" source="Xi10BOZ2VGo8RdoqIAmX-7" edge="1">
          <mxGeometry relative="1" as="geometry">
            <mxPoint x="270" y="480" as="targetPoint" />
          </mxGeometry>
        </mxCell>
        <mxCell id="Xi10BOZ2VGo8RdoqIAmX-7" value="&lt;font face=&quot;Times New Roman&quot;&gt;&lt;span style=&quot;font-size: 15px;&quot;&gt;&lt;b&gt;Power&lt;/b&gt;&lt;/span&gt;&lt;/font&gt;" style="rounded=1;whiteSpace=wrap;html=1;" parent="1" vertex="1">
          <mxGeometry x="180" y="520" width="120" height="60" as="geometry" />
        </mxCell>
        <mxCell id="JOOxyEUbyZdSYKalkVz8-5" style="edgeStyle=orthogonalEdgeStyle;rounded=0;orthogonalLoop=1;jettySize=auto;html=1;exitX=0.5;exitY=1;exitDx=0;exitDy=0;entryX=0.5;entryY=0;entryDx=0;entryDy=0;" parent="1" source="JOOxyEUbyZdSYKalkVz8-4" target="Xi10BOZ2VGo8RdoqIAmX-1" edge="1">
          <mxGeometry relative="1" as="geometry" />
        </mxCell>
        <mxCell id="JOOxyEUbyZdSYKalkVz8-4" value="&lt;font face=&quot;Times New Roman&quot;&gt;&lt;span style=&quot;font-size: 15px;&quot;&gt;&lt;b&gt;Display&lt;/b&gt;&lt;/span&gt;&lt;/font&gt;" style="rounded=1;whiteSpace=wrap;html=1;" parent="1" vertex="1">
          <mxGeometry x="360" y="120" width="120" height="60" as="geometry" />
        </mxCell>
        <mxCell id="cwdDH5eGxF_M0OgsM5ry-3" value="" style="endArrow=none;html=1;rounded=0;" parent="1" edge="1">
          <mxGeometry width="50" height="50" relative="1" as="geometry">
            <mxPoint x="520" y="320" as="sourcePoint" />
            <mxPoint x="560" y="280" as="targetPoint" />
          </mxGeometry>
        </mxCell>
        <mxCell id="cwdDH5eGxF_M0OgsM5ry-8" value="&lt;font face=&quot;Times New Roman&quot;&gt;&lt;span style=&quot;font-size: 15px;&quot;&gt;&lt;b&gt;All components&lt;/b&gt;&lt;/span&gt;&lt;/font&gt;" style="rounded=1;whiteSpace=wrap;html=1;shadow=1;glass=0;dashed=1;dashPattern=1 1;" parent="1" vertex="1">
          <mxGeometry x="160" y="450" width="160" height="30" as="geometry" />
        </mxCell>
      </root>
    </mxGraphModel>
  </diagram>
  <diagram id="w1SGXUmg4aq96N_5f62M" name="detailed_block_diagram">
    <mxGraphModel dx="880" dy="1617" grid="1" gridSize="10" guides="1" tooltips="1" connect="1" arrows="1" fold="1" page="1" pageScale="1" pageWidth="850" pageHeight="1100" math="0" shadow="0">
      <root>
        <mxCell id="0" />
        <mxCell id="1" parent="0" />
        <mxCell id="oxX6o8B_DWSjOt6dtP4j-6" style="edgeStyle=orthogonalEdgeStyle;rounded=0;orthogonalLoop=1;jettySize=auto;html=1;exitX=0.5;exitY=1;exitDx=0;exitDy=0;entryX=0.5;entryY=0;entryDx=0;entryDy=0;" parent="1" source="B_azEyaQDEWIwMeFZd9b-1" target="oxX6o8B_DWSjOt6dtP4j-5" edge="1">
          <mxGeometry relative="1" as="geometry" />
        </mxCell>
        <mxCell id="SBjCXVyyqNs9FAgvINQP-2" style="edgeStyle=orthogonalEdgeStyle;rounded=0;orthogonalLoop=1;jettySize=auto;html=1;exitX=0.25;exitY=1;exitDx=0;exitDy=0;entryX=0.5;entryY=0;entryDx=0;entryDy=0;startArrow=classic;startFill=1;" parent="1" source="B_azEyaQDEWIwMeFZd9b-1" target="SBjCXVyyqNs9FAgvINQP-1" edge="1">
          <mxGeometry relative="1" as="geometry" />
        </mxCell>
        <mxCell id="B_azEyaQDEWIwMeFZd9b-1" value="&lt;font style=&quot;font-size: 15px;&quot; face=&quot;Times New Roman&quot;&gt;&lt;b&gt;Micro-controller&lt;/b&gt;&lt;/font&gt;" style="rounded=1;whiteSpace=wrap;html=1;" parent="1" vertex="1">
          <mxGeometry x="270" y="350" width="100" height="160" as="geometry" />
        </mxCell>
        <mxCell id="oxX6o8B_DWSjOt6dtP4j-4" style="edgeStyle=orthogonalEdgeStyle;rounded=0;orthogonalLoop=1;jettySize=auto;html=1;exitX=1;exitY=0.5;exitDx=0;exitDy=0;entryX=0;entryY=0.25;entryDx=0;entryDy=0;" parent="1" source="B_azEyaQDEWIwMeFZd9b-3" target="B_azEyaQDEWIwMeFZd9b-1" edge="1">
          <mxGeometry relative="1" as="geometry" />
        </mxCell>
        <mxCell id="B_azEyaQDEWIwMeFZd9b-3" value="&lt;font style=&quot;font-size: 15px;&quot; face=&quot;Times New Roman&quot;&gt;&lt;b&gt;Reference Temperature&lt;/b&gt;&lt;/font&gt;" style="rounded=1;whiteSpace=wrap;html=1;" parent="1" vertex="1">
          <mxGeometry x="80" y="360" width="120" height="60" as="geometry" />
        </mxCell>
        <mxCell id="oxX6o8B_DWSjOt6dtP4j-3" style="edgeStyle=orthogonalEdgeStyle;rounded=0;orthogonalLoop=1;jettySize=auto;html=1;exitX=1;exitY=0.5;exitDx=0;exitDy=0;entryX=0;entryY=0.75;entryDx=0;entryDy=0;" parent="1" source="oxX6o8B_DWSjOt6dtP4j-1" target="B_azEyaQDEWIwMeFZd9b-1" edge="1">
          <mxGeometry relative="1" as="geometry" />
        </mxCell>
        <mxCell id="oxX6o8B_DWSjOt6dtP4j-1" value="&lt;font style=&quot;font-size: 15px;&quot; face=&quot;Times New Roman&quot;&gt;&lt;b&gt;Temperature Sensor&lt;/b&gt;&lt;/font&gt;" style="rounded=1;whiteSpace=wrap;html=1;" parent="1" vertex="1">
          <mxGeometry x="80" y="440" width="120" height="60" as="geometry" />
        </mxCell>
        <mxCell id="oxX6o8B_DWSjOt6dtP4j-5" value="&lt;font style=&quot;font-size: 15px;&quot; face=&quot;Times New Roman&quot;&gt;&lt;b&gt;LCD&lt;/b&gt;&lt;/font&gt;" style="rounded=1;whiteSpace=wrap;html=1;" parent="1" vertex="1">
          <mxGeometry x="270" y="560" width="100" height="60" as="geometry" />
        </mxCell>
        <mxCell id="oxX6o8B_DWSjOt6dtP4j-9" style="edgeStyle=orthogonalEdgeStyle;rounded=0;orthogonalLoop=1;jettySize=auto;html=1;exitX=0;exitY=0.5;exitDx=0;exitDy=0;entryX=1;entryY=0.25;entryDx=0;entryDy=0;" parent="1" source="oxX6o8B_DWSjOt6dtP4j-8" target="B_azEyaQDEWIwMeFZd9b-1" edge="1">
          <mxGeometry relative="1" as="geometry" />
        </mxCell>
        <mxCell id="oxX6o8B_DWSjOt6dtP4j-8" value="&lt;font style=&quot;font-size: 15px;&quot; face=&quot;Times New Roman&quot;&gt;&lt;b&gt;Voltage&amp;nbsp; Regulator&lt;/b&gt;&lt;/font&gt;" style="rounded=1;whiteSpace=wrap;html=1;" parent="1" vertex="1">
          <mxGeometry x="440" y="360" width="120" height="60" as="geometry" />
        </mxCell>
        <mxCell id="oxX6o8B_DWSjOt6dtP4j-11" value="&lt;font style=&quot;font-size: 15px;&quot; face=&quot;Times New Roman&quot;&gt;&lt;b&gt;Step down Transformer&lt;/b&gt;&lt;/font&gt;" style="rounded=1;whiteSpace=wrap;html=1;" parent="1" vertex="1">
          <mxGeometry x="440" y="580" width="120" height="60" as="geometry" />
        </mxCell>
        <mxCell id="oxX6o8B_DWSjOt6dtP4j-15" style="edgeStyle=orthogonalEdgeStyle;rounded=0;orthogonalLoop=1;jettySize=auto;html=1;exitX=0.5;exitY=1;exitDx=0;exitDy=0;entryX=0.5;entryY=0;entryDx=0;entryDy=0;endArrow=none;endFill=0;startArrow=classic;startFill=1;" parent="1" source="oxX6o8B_DWSjOt6dtP4j-13" target="oxX6o8B_DWSjOt6dtP4j-11" edge="1">
          <mxGeometry relative="1" as="geometry" />
        </mxCell>
        <mxCell id="oxX6o8B_DWSjOt6dtP4j-18" style="edgeStyle=orthogonalEdgeStyle;rounded=0;orthogonalLoop=1;jettySize=auto;html=1;exitX=0.5;exitY=0;exitDx=0;exitDy=0;entryX=0.5;entryY=1;entryDx=0;entryDy=0;" parent="1" source="oxX6o8B_DWSjOt6dtP4j-13" target="oxX6o8B_DWSjOt6dtP4j-8" edge="1">
          <mxGeometry relative="1" as="geometry" />
        </mxCell>
        <mxCell id="oxX6o8B_DWSjOt6dtP4j-13" value="&lt;font style=&quot;font-size: 15px;&quot; face=&quot;Times New Roman&quot;&gt;&lt;b&gt;Rectifier&lt;/b&gt;&lt;/font&gt;" style="rounded=1;whiteSpace=wrap;html=1;" parent="1" vertex="1">
          <mxGeometry x="440" y="470" width="120" height="60" as="geometry" />
        </mxCell>
        <mxCell id="oxX6o8B_DWSjOt6dtP4j-17" value="" style="edgeStyle=orthogonalEdgeStyle;rounded=0;orthogonalLoop=1;jettySize=auto;html=1;endArrow=none;endFill=0;startArrow=classic;startFill=1;" parent="1" source="oxX6o8B_DWSjOt6dtP4j-16" target="B_azEyaQDEWIwMeFZd9b-1" edge="1">
          <mxGeometry relative="1" as="geometry" />
        </mxCell>
        <mxCell id="oxX6o8B_DWSjOt6dtP4j-27" style="edgeStyle=orthogonalEdgeStyle;rounded=0;orthogonalLoop=1;jettySize=auto;html=1;exitX=1;exitY=0.5;exitDx=0;exitDy=0;entryX=0;entryY=0.5;entryDx=0;entryDy=0;" parent="1" source="oxX6o8B_DWSjOt6dtP4j-16" target="oxX6o8B_DWSjOt6dtP4j-22" edge="1">
          <mxGeometry relative="1" as="geometry" />
        </mxCell>
        <mxCell id="oxX6o8B_DWSjOt6dtP4j-28" style="edgeStyle=orthogonalEdgeStyle;rounded=0;orthogonalLoop=1;jettySize=auto;html=1;exitX=1;exitY=0.5;exitDx=0;exitDy=0;entryX=0;entryY=0.5;entryDx=0;entryDy=0;" parent="1" source="oxX6o8B_DWSjOt6dtP4j-16" target="oxX6o8B_DWSjOt6dtP4j-24" edge="1">
          <mxGeometry relative="1" as="geometry" />
        </mxCell>
        <mxCell id="oxX6o8B_DWSjOt6dtP4j-16" value="&lt;font style=&quot;font-size: 15px;&quot; face=&quot;Times New Roman&quot;&gt;&lt;b&gt;Optocoupler&lt;/b&gt;&lt;/font&gt;" style="rounded=1;whiteSpace=wrap;html=1;" parent="1" vertex="1">
          <mxGeometry x="260" y="200" width="120" height="60" as="geometry" />
        </mxCell>
        <mxCell id="oxX6o8B_DWSjOt6dtP4j-21" style="edgeStyle=orthogonalEdgeStyle;rounded=0;orthogonalLoop=1;jettySize=auto;html=1;exitX=0.5;exitY=1;exitDx=0;exitDy=0;entryX=1;entryY=0.5;entryDx=0;entryDy=0;" parent="1" source="oxX6o8B_DWSjOt6dtP4j-19" target="oxX6o8B_DWSjOt6dtP4j-11" edge="1">
          <mxGeometry relative="1" as="geometry" />
        </mxCell>
        <mxCell id="oxX6o8B_DWSjOt6dtP4j-23" style="edgeStyle=orthogonalEdgeStyle;rounded=0;orthogonalLoop=1;jettySize=auto;html=1;exitX=0.5;exitY=0;exitDx=0;exitDy=0;entryX=0.5;entryY=1;entryDx=0;entryDy=0;" parent="1" source="oxX6o8B_DWSjOt6dtP4j-19" target="oxX6o8B_DWSjOt6dtP4j-22" edge="1">
          <mxGeometry relative="1" as="geometry" />
        </mxCell>
        <mxCell id="oxX6o8B_DWSjOt6dtP4j-19" value="&lt;font style=&quot;font-size: 15px;&quot; face=&quot;Times New Roman&quot;&gt;&lt;b&gt;Power&amp;nbsp;&lt;br&gt;240v AC&lt;br&gt;&lt;/b&gt;&lt;/font&gt;" style="rounded=1;whiteSpace=wrap;html=1;" parent="1" vertex="1">
          <mxGeometry x="610" y="360" width="120" height="60" as="geometry" />
        </mxCell>
        <mxCell id="oxX6o8B_DWSjOt6dtP4j-25" style="edgeStyle=orthogonalEdgeStyle;rounded=0;orthogonalLoop=1;jettySize=auto;html=1;exitX=0.5;exitY=0;exitDx=0;exitDy=0;entryX=0.5;entryY=1;entryDx=0;entryDy=0;" parent="1" source="oxX6o8B_DWSjOt6dtP4j-22" target="oxX6o8B_DWSjOt6dtP4j-24" edge="1">
          <mxGeometry relative="1" as="geometry" />
        </mxCell>
        <mxCell id="oxX6o8B_DWSjOt6dtP4j-22" value="&lt;font style=&quot;font-size: 15px;&quot; face=&quot;Times New Roman&quot;&gt;&lt;b&gt;Relay&lt;br&gt;&lt;/b&gt;&lt;/font&gt;" style="rounded=1;whiteSpace=wrap;html=1;" parent="1" vertex="1">
          <mxGeometry x="610" y="250" width="120" height="60" as="geometry" />
        </mxCell>
        <mxCell id="oxX6o8B_DWSjOt6dtP4j-31" style="edgeStyle=orthogonalEdgeStyle;rounded=0;orthogonalLoop=1;jettySize=auto;html=1;exitX=0.5;exitY=0;exitDx=0;exitDy=0;endArrow=oval;endFill=1;" parent="1" source="oxX6o8B_DWSjOt6dtP4j-24" edge="1">
          <mxGeometry relative="1" as="geometry">
            <mxPoint x="670" y="100" as="targetPoint" />
          </mxGeometry>
        </mxCell>
        <mxCell id="oxX6o8B_DWSjOt6dtP4j-24" value="&lt;font style=&quot;font-size: 15px;&quot; face=&quot;Times New Roman&quot;&gt;&lt;b&gt;Thyristor&lt;br&gt;&lt;/b&gt;&lt;/font&gt;" style="rounded=1;whiteSpace=wrap;html=1;" parent="1" vertex="1">
          <mxGeometry x="610" y="140" width="120" height="60" as="geometry" />
        </mxCell>
        <mxCell id="oxX6o8B_DWSjOt6dtP4j-33" style="edgeStyle=orthogonalEdgeStyle;rounded=0;orthogonalLoop=1;jettySize=auto;html=1;exitX=0.5;exitY=1;exitDx=0;exitDy=0;endArrow=none;endFill=0;" parent="1" source="oxX6o8B_DWSjOt6dtP4j-29" edge="1">
          <mxGeometry relative="1" as="geometry">
            <mxPoint x="640" y="70" as="targetPoint" />
          </mxGeometry>
        </mxCell>
        <mxCell id="oxX6o8B_DWSjOt6dtP4j-29" value="&lt;font style=&quot;font-size: 15px;&quot; face=&quot;Times New Roman&quot;&gt;&lt;b&gt;Liquid Refrigerant Cooling System&lt;br&gt;&lt;/b&gt;&lt;/font&gt;" style="rounded=1;whiteSpace=wrap;html=1;" parent="1" vertex="1">
          <mxGeometry x="480" y="-20" width="160" height="60" as="geometry" />
        </mxCell>
        <mxCell id="oxX6o8B_DWSjOt6dtP4j-34" style="edgeStyle=orthogonalEdgeStyle;rounded=0;orthogonalLoop=1;jettySize=auto;html=1;exitX=0.5;exitY=1;exitDx=0;exitDy=0;endArrow=oval;endFill=1;" parent="1" source="oxX6o8B_DWSjOt6dtP4j-30" edge="1">
          <mxGeometry relative="1" as="geometry">
            <mxPoint x="700" y="70" as="targetPoint" />
          </mxGeometry>
        </mxCell>
        <mxCell id="oxX6o8B_DWSjOt6dtP4j-30" value="&lt;font style=&quot;font-size: 15px;&quot; face=&quot;Times New Roman&quot;&gt;&lt;b&gt;Nichrome Wire&amp;nbsp; &amp;nbsp;Heating System&lt;br&gt;&lt;/b&gt;&lt;/font&gt;" style="rounded=1;whiteSpace=wrap;html=1;" parent="1" vertex="1">
          <mxGeometry x="705" y="-20" width="160" height="60" as="geometry" />
        </mxCell>
        <mxCell id="oxX6o8B_DWSjOt6dtP4j-35" value="" style="endArrow=oval;html=1;rounded=0;endFill=1;startArrow=oval;startFill=1;" parent="1" edge="1">
          <mxGeometry width="50" height="50" relative="1" as="geometry">
            <mxPoint x="640" y="70" as="sourcePoint" />
            <mxPoint x="670" y="100" as="targetPoint" />
          </mxGeometry>
        </mxCell>
        <mxCell id="SBjCXVyyqNs9FAgvINQP-1" value="&lt;font style=&quot;font-size: 15px;&quot; face=&quot;Times New Roman&quot;&gt;&lt;b&gt;Memory&lt;/b&gt;&lt;/font&gt;" style="rounded=1;whiteSpace=wrap;html=1;" parent="1" vertex="1">
          <mxGeometry x="90" y="560" width="100" height="60" as="geometry" />
        </mxCell>
      </root>
    </mxGraphModel>
  </diagram>
  <diagram id="F_2vX6axjyMIse3DmR4y" name="program_workflow">
    <mxGraphModel dx="880" dy="517" grid="1" gridSize="10" guides="1" tooltips="1" connect="1" arrows="1" fold="1" page="1" pageScale="1" pageWidth="850" pageHeight="1100" math="0" shadow="0">
      <root>
        <mxCell id="0" />
        <mxCell id="1" parent="0" />
        <mxCell id="wvoTViHETzJUER2Yl9E2-17" style="edgeStyle=orthogonalEdgeStyle;rounded=0;orthogonalLoop=1;jettySize=auto;html=1;exitX=0.5;exitY=1;exitDx=0;exitDy=0;entryX=0.5;entryY=0;entryDx=0;entryDy=0;" edge="1" parent="1" source="wvoTViHETzJUER2Yl9E2-1" target="wvoTViHETzJUER2Yl9E2-12">
          <mxGeometry relative="1" as="geometry" />
        </mxCell>
        <mxCell id="wvoTViHETzJUER2Yl9E2-1" value="&lt;font style=&quot;font-size: 15px;&quot; face=&quot;Times New Roman&quot;&gt;&lt;b&gt;Measure the temperature and humidity of a room&lt;/b&gt;&lt;/font&gt;" style="rounded=1;whiteSpace=wrap;html=1;" vertex="1" parent="1">
          <mxGeometry x="245" y="420" width="360" height="40" as="geometry" />
        </mxCell>
        <mxCell id="wvoTViHETzJUER2Yl9E2-2" value="&lt;font style=&quot;font-size: 15px;&quot; face=&quot;Times New Roman&quot;&gt;&lt;b&gt;Assumptions:&amp;nbsp;&lt;/b&gt;&lt;/font&gt;&lt;div style=&quot;&quot;&gt;&lt;font style=&quot;font-size: 15px;&quot; face=&quot;Times New Roman&quot;&gt;&lt;b&gt;Early Adopters of the system are Dar es Salaam Inhabitants&lt;/b&gt;&lt;/font&gt;&lt;/div&gt;&lt;div style=&quot;&quot;&gt;&lt;font style=&quot;font-size: 15px;&quot; face=&quot;Times New Roman&quot;&gt;&lt;b&gt;The comfortable temperature during summer 16c to 20c&lt;/b&gt;&lt;/font&gt;&lt;/div&gt;&lt;div style=&quot;&quot;&gt;&lt;b style=&quot;font-family: &amp;quot;Times New Roman&amp;quot;; font-size: 15px;&quot;&gt;The comfortable temperature during winter is&amp;nbsp; 26c - 30c&lt;/b&gt;&lt;br&gt;&lt;/div&gt;&lt;div style=&quot;&quot;&gt;&lt;b style=&quot;font-family: &amp;quot;Times New Roman&amp;quot;; font-size: 15px;&quot;&gt;The threshold temperature for the system be 23c&lt;/b&gt;&lt;/div&gt;" style="rounded=1;whiteSpace=wrap;html=1;" vertex="1" parent="1">
          <mxGeometry x="40" y="40" width="760" height="120" as="geometry" />
        </mxCell>
        <mxCell id="wvoTViHETzJUER2Yl9E2-18" style="edgeStyle=orthogonalEdgeStyle;rounded=0;orthogonalLoop=1;jettySize=auto;html=1;exitX=0;exitY=0.5;exitDx=0;exitDy=0;entryX=0.5;entryY=0;entryDx=0;entryDy=0;" edge="1" parent="1" source="wvoTViHETzJUER2Yl9E2-12" target="wvoTViHETzJUER2Yl9E2-13">
          <mxGeometry relative="1" as="geometry" />
        </mxCell>
        <mxCell id="wvoTViHETzJUER2Yl9E2-19" style="edgeStyle=orthogonalEdgeStyle;rounded=0;orthogonalLoop=1;jettySize=auto;html=1;exitX=1;exitY=0.5;exitDx=0;exitDy=0;entryX=0.5;entryY=0;entryDx=0;entryDy=0;" edge="1" parent="1" source="wvoTViHETzJUER2Yl9E2-12" target="wvoTViHETzJUER2Yl9E2-14">
          <mxGeometry relative="1" as="geometry" />
        </mxCell>
        <mxCell id="wvoTViHETzJUER2Yl9E2-12" value="&lt;font face=&quot;Times New Roman&quot;&gt;&lt;span style=&quot;font-size: 15px;&quot;&gt;&lt;b&gt;room_temp &amp;gt;&lt;/b&gt;&lt;/span&gt;&lt;/font&gt;&lt;b style=&quot;font-size: 15px; font-family: &amp;quot;Times New Roman&amp;quot;; background-color: initial;&quot;&gt;&amp;nbsp;th_&lt;/b&gt;&lt;b style=&quot;background-color: initial; font-size: 15px; font-family: &amp;quot;Times New Roman&amp;quot;;&quot;&gt;temp&lt;/b&gt;" style="rhombus;whiteSpace=wrap;html=1;" vertex="1" parent="1">
          <mxGeometry x="295" y="500" width="260" height="80" as="geometry" />
        </mxCell>
        <mxCell id="wvoTViHETzJUER2Yl9E2-23" style="edgeStyle=orthogonalEdgeStyle;rounded=0;orthogonalLoop=1;jettySize=auto;html=1;exitX=0.5;exitY=1;exitDx=0;exitDy=0;entryX=0.5;entryY=0;entryDx=0;entryDy=0;" edge="1" parent="1" source="wvoTViHETzJUER2Yl9E2-13" target="wvoTViHETzJUER2Yl9E2-21">
          <mxGeometry relative="1" as="geometry" />
        </mxCell>
        <mxCell id="wvoTViHETzJUER2Yl9E2-13" value="&lt;font style=&quot;font-size: 15px;&quot; face=&quot;Times New Roman&quot;&gt;&lt;b&gt;Turn on Cooling Sytem&lt;/b&gt;&lt;/font&gt;" style="rounded=1;whiteSpace=wrap;html=1;" vertex="1" parent="1">
          <mxGeometry x="125" y="600" width="200" height="40" as="geometry" />
        </mxCell>
        <mxCell id="wvoTViHETzJUER2Yl9E2-22" style="edgeStyle=orthogonalEdgeStyle;rounded=0;orthogonalLoop=1;jettySize=auto;html=1;exitX=0.5;exitY=1;exitDx=0;exitDy=0;entryX=0.5;entryY=0;entryDx=0;entryDy=0;" edge="1" parent="1" source="wvoTViHETzJUER2Yl9E2-14" target="wvoTViHETzJUER2Yl9E2-20">
          <mxGeometry relative="1" as="geometry" />
        </mxCell>
        <mxCell id="wvoTViHETzJUER2Yl9E2-14" value="&lt;font style=&quot;font-size: 15px;&quot; face=&quot;Times New Roman&quot;&gt;&lt;b&gt;Turn on Heating Sytem&lt;/b&gt;&lt;/font&gt;" style="rounded=1;whiteSpace=wrap;html=1;" vertex="1" parent="1">
          <mxGeometry x="525" y="600" width="200" height="40" as="geometry" />
        </mxCell>
        <mxCell id="wvoTViHETzJUER2Yl9E2-15" value="&lt;font size=&quot;1&quot; face=&quot;Times New Roman&quot;&gt;&lt;b style=&quot;font-size: 15px;&quot;&gt;YES&lt;/b&gt;&lt;/font&gt;" style="text;html=1;align=center;verticalAlign=middle;resizable=0;points=[];autosize=1;strokeColor=none;fillColor=none;" vertex="1" parent="1">
          <mxGeometry x="245" y="550" width="50" height="30" as="geometry" />
        </mxCell>
        <mxCell id="wvoTViHETzJUER2Yl9E2-16" value="&lt;font size=&quot;1&quot; face=&quot;Times New Roman&quot;&gt;&lt;b style=&quot;font-size: 15px;&quot;&gt;NO&lt;/b&gt;&lt;/font&gt;" style="text;html=1;align=center;verticalAlign=middle;resizable=0;points=[];autosize=1;strokeColor=none;fillColor=none;" vertex="1" parent="1">
          <mxGeometry x="555" y="550" width="50" height="30" as="geometry" />
        </mxCell>
        <mxCell id="wvoTViHETzJUER2Yl9E2-40" style="edgeStyle=orthogonalEdgeStyle;rounded=0;orthogonalLoop=1;jettySize=auto;html=1;exitX=0.5;exitY=1;exitDx=0;exitDy=0;entryX=0.5;entryY=0;entryDx=0;entryDy=0;" edge="1" parent="1" source="wvoTViHETzJUER2Yl9E2-20" target="wvoTViHETzJUER2Yl9E2-39">
          <mxGeometry relative="1" as="geometry" />
        </mxCell>
        <mxCell id="wvoTViHETzJUER2Yl9E2-20" value="&lt;font style=&quot;font-size: 15px;&quot; face=&quot;Times New Roman&quot;&gt;&lt;b&gt;Measure Room Temperature&lt;/b&gt;&lt;/font&gt;" style="rounded=1;whiteSpace=wrap;html=1;" vertex="1" parent="1">
          <mxGeometry x="525" y="680" width="200" height="40" as="geometry" />
        </mxCell>
        <mxCell id="wvoTViHETzJUER2Yl9E2-42" style="edgeStyle=orthogonalEdgeStyle;rounded=0;orthogonalLoop=1;jettySize=auto;html=1;exitX=0.5;exitY=1;exitDx=0;exitDy=0;entryX=0.5;entryY=0;entryDx=0;entryDy=0;" edge="1" parent="1" source="wvoTViHETzJUER2Yl9E2-21" target="wvoTViHETzJUER2Yl9E2-41">
          <mxGeometry relative="1" as="geometry" />
        </mxCell>
        <mxCell id="wvoTViHETzJUER2Yl9E2-21" value="&lt;font style=&quot;font-size: 15px;&quot; face=&quot;Times New Roman&quot;&gt;&lt;b&gt;Measure Room Temperature&lt;/b&gt;&lt;/font&gt;" style="rounded=1;whiteSpace=wrap;html=1;" vertex="1" parent="1">
          <mxGeometry x="125" y="680" width="200" height="40" as="geometry" />
        </mxCell>
        <mxCell id="wvoTViHETzJUER2Yl9E2-30" style="edgeStyle=orthogonalEdgeStyle;rounded=0;orthogonalLoop=1;jettySize=auto;html=1;exitX=1;exitY=0.5;exitDx=0;exitDy=0;entryX=0.5;entryY=0;entryDx=0;entryDy=0;" edge="1" parent="1" source="wvoTViHETzJUER2Yl9E2-32" target="wvoTViHETzJUER2Yl9E2-36">
          <mxGeometry relative="1" as="geometry" />
        </mxCell>
        <mxCell id="wvoTViHETzJUER2Yl9E2-31" style="edgeStyle=orthogonalEdgeStyle;rounded=0;orthogonalLoop=1;jettySize=auto;html=1;exitX=0;exitY=0.5;exitDx=0;exitDy=0;entryX=0.5;entryY=0;entryDx=0;entryDy=0;" edge="1" parent="1" source="wvoTViHETzJUER2Yl9E2-32" target="wvoTViHETzJUER2Yl9E2-35">
          <mxGeometry relative="1" as="geometry" />
        </mxCell>
        <mxCell id="wvoTViHETzJUER2Yl9E2-32" value="&lt;b style=&quot;font-family: &amp;quot;Times New Roman&amp;quot;; font-size: 15px;&quot;&gt;User Reference&amp;nbsp;&lt;/b&gt;&lt;div&gt;&lt;b style=&quot;font-family: &amp;quot;Times New Roman&amp;quot;; font-size: 15px;&quot;&gt;Temperature Exist?&lt;/b&gt;&lt;/div&gt;" style="rhombus;whiteSpace=wrap;html=1;" vertex="1" parent="1">
          <mxGeometry x="290" y="190" width="260" height="80" as="geometry" />
        </mxCell>
        <mxCell id="wvoTViHETzJUER2Yl9E2-33" value="&lt;font size=&quot;1&quot; face=&quot;Times New Roman&quot;&gt;&lt;b style=&quot;font-size: 15px;&quot;&gt;YES&lt;/b&gt;&lt;/font&gt;" style="text;html=1;align=center;verticalAlign=middle;resizable=0;points=[];autosize=1;strokeColor=none;fillColor=none;" vertex="1" parent="1">
          <mxGeometry x="250" y="190" width="50" height="30" as="geometry" />
        </mxCell>
        <mxCell id="wvoTViHETzJUER2Yl9E2-34" value="&lt;font size=&quot;1&quot; face=&quot;Times New Roman&quot;&gt;&lt;b style=&quot;font-size: 15px;&quot;&gt;NO&lt;/b&gt;&lt;/font&gt;" style="text;html=1;align=center;verticalAlign=middle;resizable=0;points=[];autosize=1;strokeColor=none;fillColor=none;" vertex="1" parent="1">
          <mxGeometry x="530" y="190" width="50" height="30" as="geometry" />
        </mxCell>
        <mxCell id="wvoTViHETzJUER2Yl9E2-38" style="edgeStyle=orthogonalEdgeStyle;rounded=0;orthogonalLoop=1;jettySize=auto;html=1;exitX=0.5;exitY=1;exitDx=0;exitDy=0;entryX=0.5;entryY=0;entryDx=0;entryDy=0;" edge="1" parent="1" source="wvoTViHETzJUER2Yl9E2-35" target="wvoTViHETzJUER2Yl9E2-1">
          <mxGeometry relative="1" as="geometry" />
        </mxCell>
        <mxCell id="wvoTViHETzJUER2Yl9E2-35" value="&lt;font face=&quot;Times New Roman&quot;&gt;&lt;span style=&quot;font-size: 15px;&quot;&gt;&lt;b&gt;temp_val = ref_val&lt;/b&gt;&lt;/span&gt;&lt;/font&gt;" style="rhombus;whiteSpace=wrap;html=1;" vertex="1" parent="1">
          <mxGeometry x="130" y="290" width="260" height="80" as="geometry" />
        </mxCell>
        <mxCell id="wvoTViHETzJUER2Yl9E2-37" style="edgeStyle=orthogonalEdgeStyle;rounded=0;orthogonalLoop=1;jettySize=auto;html=1;exitX=0.5;exitY=1;exitDx=0;exitDy=0;entryX=0.5;entryY=0;entryDx=0;entryDy=0;" edge="1" parent="1" source="wvoTViHETzJUER2Yl9E2-36" target="wvoTViHETzJUER2Yl9E2-1">
          <mxGeometry relative="1" as="geometry" />
        </mxCell>
        <mxCell id="wvoTViHETzJUER2Yl9E2-36" value="&lt;font face=&quot;Times New Roman&quot;&gt;&lt;span style=&quot;font-size: 15px;&quot;&gt;&lt;b&gt;temp_val = default_val&lt;/b&gt;&lt;/span&gt;&lt;/font&gt;" style="rhombus;whiteSpace=wrap;html=1;" vertex="1" parent="1">
          <mxGeometry x="450" y="290" width="260" height="80" as="geometry" />
        </mxCell>
        <mxCell id="wvoTViHETzJUER2Yl9E2-44" style="edgeStyle=orthogonalEdgeStyle;rounded=0;orthogonalLoop=1;jettySize=auto;html=1;exitX=1;exitY=0.5;exitDx=0;exitDy=0;entryX=0.5;entryY=0;entryDx=0;entryDy=0;" edge="1" parent="1" source="wvoTViHETzJUER2Yl9E2-39" target="wvoTViHETzJUER2Yl9E2-20">
          <mxGeometry relative="1" as="geometry" />
        </mxCell>
        <mxCell id="wvoTViHETzJUER2Yl9E2-46" style="edgeStyle=orthogonalEdgeStyle;rounded=0;orthogonalLoop=1;jettySize=auto;html=1;exitX=0.5;exitY=1;exitDx=0;exitDy=0;entryX=0.5;entryY=0;entryDx=0;entryDy=0;" edge="1" parent="1" source="wvoTViHETzJUER2Yl9E2-39" target="wvoTViHETzJUER2Yl9E2-43">
          <mxGeometry relative="1" as="geometry" />
        </mxCell>
        <mxCell id="wvoTViHETzJUER2Yl9E2-39" value="&lt;font face=&quot;Times New Roman&quot;&gt;&lt;span style=&quot;font-size: 15px;&quot;&gt;&lt;b&gt;temp_val == measured_val&lt;/b&gt;&lt;/span&gt;&lt;/font&gt;" style="rhombus;whiteSpace=wrap;html=1;" vertex="1" parent="1">
          <mxGeometry x="495" y="760" width="260" height="80" as="geometry" />
        </mxCell>
        <mxCell id="wvoTViHETzJUER2Yl9E2-41" value="&lt;font face=&quot;Times New Roman&quot;&gt;&lt;span style=&quot;font-size: 15px;&quot;&gt;&lt;b&gt;temp_val == measured_val&lt;/b&gt;&lt;/span&gt;&lt;/font&gt;" style="rhombus;whiteSpace=wrap;html=1;" vertex="1" parent="1">
          <mxGeometry x="95" y="760" width="260" height="80" as="geometry" />
        </mxCell>
        <mxCell id="wvoTViHETzJUER2Yl9E2-48" style="edgeStyle=orthogonalEdgeStyle;rounded=0;orthogonalLoop=1;jettySize=auto;html=1;exitX=0.5;exitY=1;exitDx=0;exitDy=0;entryX=0.5;entryY=0;entryDx=0;entryDy=0;" edge="1" parent="1" source="wvoTViHETzJUER2Yl9E2-43" target="wvoTViHETzJUER2Yl9E2-47">
          <mxGeometry relative="1" as="geometry" />
        </mxCell>
        <mxCell id="wvoTViHETzJUER2Yl9E2-43" value="&lt;font style=&quot;font-size: 15px;&quot; face=&quot;Times New Roman&quot;&gt;&lt;b&gt;Turn Off Heating System&lt;/b&gt;&lt;/font&gt;" style="rounded=1;whiteSpace=wrap;html=1;" vertex="1" parent="1">
          <mxGeometry x="525" y="880" width="200" height="40" as="geometry" />
        </mxCell>
        <mxCell id="wvoTViHETzJUER2Yl9E2-45" value="&lt;font size=&quot;1&quot; face=&quot;Times New Roman&quot;&gt;&lt;b style=&quot;font-size: 15px;&quot;&gt;NO&lt;/b&gt;&lt;/font&gt;" style="text;html=1;align=center;verticalAlign=middle;resizable=0;points=[];autosize=1;strokeColor=none;fillColor=none;" vertex="1" parent="1">
          <mxGeometry x="770" y="720" width="50" height="30" as="geometry" />
        </mxCell>
        <mxCell id="wvoTViHETzJUER2Yl9E2-50" style="edgeStyle=orthogonalEdgeStyle;rounded=0;orthogonalLoop=1;jettySize=auto;html=1;exitX=0.5;exitY=1;exitDx=0;exitDy=0;entryX=0.5;entryY=0;entryDx=0;entryDy=0;" edge="1" parent="1" source="wvoTViHETzJUER2Yl9E2-47" target="wvoTViHETzJUER2Yl9E2-49">
          <mxGeometry relative="1" as="geometry" />
        </mxCell>
        <mxCell id="wvoTViHETzJUER2Yl9E2-47" value="&lt;font style=&quot;font-size: 15px;&quot; face=&quot;Times New Roman&quot;&gt;&lt;b&gt;Measure Room Temperature&lt;/b&gt;&lt;/font&gt;" style="rounded=1;whiteSpace=wrap;html=1;" vertex="1" parent="1">
          <mxGeometry x="525" y="960" width="200" height="40" as="geometry" />
        </mxCell>
        <mxCell id="wvoTViHETzJUER2Yl9E2-53" style="edgeStyle=orthogonalEdgeStyle;rounded=0;orthogonalLoop=1;jettySize=auto;html=1;exitX=1;exitY=0.5;exitDx=0;exitDy=0;entryX=0.5;entryY=0;entryDx=0;entryDy=0;" edge="1" parent="1" source="wvoTViHETzJUER2Yl9E2-49" target="wvoTViHETzJUER2Yl9E2-43">
          <mxGeometry relative="1" as="geometry" />
        </mxCell>
        <mxCell id="wvoTViHETzJUER2Yl9E2-54" style="edgeStyle=orthogonalEdgeStyle;rounded=0;orthogonalLoop=1;jettySize=auto;html=1;exitX=0;exitY=0.5;exitDx=0;exitDy=0;entryX=0.5;entryY=0;entryDx=0;entryDy=0;" edge="1" parent="1" source="wvoTViHETzJUER2Yl9E2-49" target="wvoTViHETzJUER2Yl9E2-14">
          <mxGeometry relative="1" as="geometry">
            <Array as="points">
              <mxPoint x="475" y="1080" />
              <mxPoint x="475" y="580" />
              <mxPoint x="625" y="580" />
            </Array>
          </mxGeometry>
        </mxCell>
        <mxCell id="wvoTViHETzJUER2Yl9E2-49" value="&lt;font face=&quot;Times New Roman&quot;&gt;&lt;span style=&quot;font-size: 15px;&quot;&gt;&lt;b&gt;temp_val &amp;gt; measured_val&lt;/b&gt;&lt;/span&gt;&lt;/font&gt;" style="rhombus;whiteSpace=wrap;html=1;" vertex="1" parent="1">
          <mxGeometry x="495" y="1040" width="260" height="80" as="geometry" />
        </mxCell>
        <mxCell id="wvoTViHETzJUER2Yl9E2-52" value="&lt;font size=&quot;1&quot; face=&quot;Times New Roman&quot;&gt;&lt;b style=&quot;font-size: 15px;&quot;&gt;YES&lt;/b&gt;&lt;/font&gt;" style="text;html=1;align=center;verticalAlign=middle;resizable=0;points=[];autosize=1;strokeColor=none;fillColor=none;" vertex="1" parent="1">
          <mxGeometry x="770" y="930" width="50" height="30" as="geometry" />
        </mxCell>
        <mxCell id="wvoTViHETzJUER2Yl9E2-55" value="&lt;font size=&quot;1&quot; face=&quot;Times New Roman&quot;&gt;&lt;b style=&quot;font-size: 15px;&quot;&gt;NO&lt;/b&gt;&lt;/font&gt;" style="text;html=1;align=center;verticalAlign=middle;resizable=0;points=[];autosize=1;strokeColor=none;fillColor=none;" vertex="1" parent="1">
          <mxGeometry x="420" y="810" width="50" height="30" as="geometry" />
        </mxCell>
        <mxCell id="wvoTViHETzJUER2Yl9E2-56" style="edgeStyle=orthogonalEdgeStyle;rounded=0;orthogonalLoop=1;jettySize=auto;html=1;exitX=0.5;exitY=1;exitDx=0;exitDy=0;entryX=0.5;entryY=0;entryDx=0;entryDy=0;" edge="1" target="wvoTViHETzJUER2Yl9E2-58" parent="1">
          <mxGeometry relative="1" as="geometry">
            <mxPoint x="225" y="840" as="sourcePoint" />
          </mxGeometry>
        </mxCell>
        <mxCell id="wvoTViHETzJUER2Yl9E2-57" style="edgeStyle=orthogonalEdgeStyle;rounded=0;orthogonalLoop=1;jettySize=auto;html=1;exitX=0.5;exitY=1;exitDx=0;exitDy=0;entryX=0.5;entryY=0;entryDx=0;entryDy=0;" edge="1" source="wvoTViHETzJUER2Yl9E2-58" target="wvoTViHETzJUER2Yl9E2-60" parent="1">
          <mxGeometry relative="1" as="geometry" />
        </mxCell>
        <mxCell id="wvoTViHETzJUER2Yl9E2-58" value="&lt;font style=&quot;font-size: 15px;&quot; face=&quot;Times New Roman&quot;&gt;&lt;b&gt;Turn Off Cooling System&lt;/b&gt;&lt;/font&gt;" style="rounded=1;whiteSpace=wrap;html=1;" vertex="1" parent="1">
          <mxGeometry x="125" y="880" width="200" height="40" as="geometry" />
        </mxCell>
        <mxCell id="wvoTViHETzJUER2Yl9E2-59" style="edgeStyle=orthogonalEdgeStyle;rounded=0;orthogonalLoop=1;jettySize=auto;html=1;exitX=0.5;exitY=1;exitDx=0;exitDy=0;entryX=0.5;entryY=0;entryDx=0;entryDy=0;" edge="1" source="wvoTViHETzJUER2Yl9E2-60" target="wvoTViHETzJUER2Yl9E2-62" parent="1">
          <mxGeometry relative="1" as="geometry" />
        </mxCell>
        <mxCell id="wvoTViHETzJUER2Yl9E2-60" value="&lt;font style=&quot;font-size: 15px;&quot; face=&quot;Times New Roman&quot;&gt;&lt;b&gt;Measure Room Temperature&lt;/b&gt;&lt;/font&gt;" style="rounded=1;whiteSpace=wrap;html=1;" vertex="1" parent="1">
          <mxGeometry x="125" y="960" width="200" height="40" as="geometry" />
        </mxCell>
        <mxCell id="wvoTViHETzJUER2Yl9E2-61" style="edgeStyle=orthogonalEdgeStyle;rounded=0;orthogonalLoop=1;jettySize=auto;html=1;exitX=1;exitY=0.5;exitDx=0;exitDy=0;entryX=0.5;entryY=0;entryDx=0;entryDy=0;" edge="1" source="wvoTViHETzJUER2Yl9E2-62" target="wvoTViHETzJUER2Yl9E2-58" parent="1">
          <mxGeometry relative="1" as="geometry" />
        </mxCell>
        <mxCell id="wvoTViHETzJUER2Yl9E2-66" style="edgeStyle=orthogonalEdgeStyle;rounded=0;orthogonalLoop=1;jettySize=auto;html=1;exitX=0;exitY=0.5;exitDx=0;exitDy=0;entryX=0.5;entryY=0;entryDx=0;entryDy=0;" edge="1" parent="1" source="wvoTViHETzJUER2Yl9E2-62" target="wvoTViHETzJUER2Yl9E2-13">
          <mxGeometry relative="1" as="geometry">
            <Array as="points">
              <mxPoint x="75" y="1080" />
              <mxPoint x="75" y="580" />
              <mxPoint x="225" y="580" />
            </Array>
          </mxGeometry>
        </mxCell>
        <mxCell id="wvoTViHETzJUER2Yl9E2-62" value="&lt;font face=&quot;Times New Roman&quot;&gt;&lt;span style=&quot;font-size: 15px;&quot;&gt;&lt;b&gt;temp_val &amp;lt; measured_val&lt;/b&gt;&lt;/span&gt;&lt;/font&gt;" style="rhombus;whiteSpace=wrap;html=1;" vertex="1" parent="1">
          <mxGeometry x="95" y="1040" width="260" height="80" as="geometry" />
        </mxCell>
        <mxCell id="wvoTViHETzJUER2Yl9E2-63" value="&lt;font size=&quot;1&quot; face=&quot;Times New Roman&quot;&gt;&lt;b style=&quot;font-size: 15px;&quot;&gt;YES&lt;/b&gt;&lt;/font&gt;" style="text;html=1;align=center;verticalAlign=middle;resizable=0;points=[];autosize=1;strokeColor=none;fillColor=none;" vertex="1" parent="1">
          <mxGeometry x="370" y="930" width="50" height="30" as="geometry" />
        </mxCell>
        <mxCell id="wvoTViHETzJUER2Yl9E2-64" value="&lt;font size=&quot;1&quot; face=&quot;Times New Roman&quot;&gt;&lt;b style=&quot;font-size: 15px;&quot;&gt;NO&lt;/b&gt;&lt;/font&gt;" style="text;html=1;align=center;verticalAlign=middle;resizable=0;points=[];autosize=1;strokeColor=none;fillColor=none;" vertex="1" parent="1">
          <mxGeometry x="20" y="810" width="50" height="30" as="geometry" />
        </mxCell>
      </root>
    </mxGraphModel>
  </diagram>
</mxfile>
